<?xml version="1.0" encoding="UTF-8" standalone="no"?>
<!DOCTYPE svg PUBLIC "-//W3C//DTD SVG 1.1//EN"
 "http://www.w3.org/Graphics/SVG/1.1/DTD/svg11.dtd">
<!-- Generated by graphviz version 2.40.1 (20161225.0304)
 -->
<!-- Title: controllers_diagram Pages: 1 -->
<svg width="645pt" height="629pt"
 viewBox="0.00 0.00 645.00 629.00" xmlns="http://www.w3.org/2000/svg" xmlns:xlink="http://www.w3.org/1999/xlink">
<g id="graph0" class="graph" transform="scale(1 1) rotate(0) translate(4 625)">
<title>controllers_diagram</title>
<polygon fill="transparent" stroke="transparent" points="-4,4 -4,-625 641,-625 641,4 -4,4"/>
<!-- _diagram_info -->
<g id="node1" class="node">
<title>_diagram_info</title>
<text text-anchor="start" x="408" y="-463.6" font-family="Times,serif" font-size="13.00" fill="#000000">Controllers diagram</text>
<text text-anchor="start" x="408" y="-449.6" font-family="Times,serif" font-size="13.00" fill="#000000">Date: Jun 25 2017 &#45; 06:44</text>
<text text-anchor="start" x="408" y="-435.6" font-family="Times,serif" font-size="13.00" fill="#000000">Migration version: 20170623073627</text>
<text text-anchor="start" x="408" y="-421.6" font-family="Times,serif" font-size="13.00" fill="#000000">Generated by RailRoady 1.5.3</text>
<text text-anchor="start" x="408" y="-407.6" font-family="Times,serif" font-size="13.00" fill="#000000">http://railroady.prestonlee.com</text>
</g>
<!-- AnswersController -->
<g id="node2" class="node">
<title>AnswersController</title>
<path fill="none" stroke="#000000" d="M332,-16.5C332,-16.5 433,-16.5 433,-16.5 439,-16.5 445,-22.5 445,-28.5 445,-28.5 445,-112.5 445,-112.5 445,-118.5 439,-124.5 433,-124.5 433,-124.5 332,-124.5 332,-124.5 326,-124.5 320,-118.5 320,-112.5 320,-112.5 320,-28.5 320,-28.5 320,-22.5 326,-16.5 332,-16.5"/>
<text text-anchor="middle" x="382.5" y="-109.3" font-family="Times,serif" font-size="14.00" fill="#000000">AnswersController</text>
<polyline fill="none" stroke="#000000" points="320,-101.5 445,-101.5 "/>
<text text-anchor="start" x="328" y="-86.3" font-family="Times,serif" font-size="14.00" fill="#000000">create</text>
<text text-anchor="start" x="328" y="-71.3" font-family="Times,serif" font-size="14.00" fill="#000000">destroy</text>
<polyline fill="none" stroke="#000000" points="320,-63.5 445,-63.5 "/>
<polyline fill="none" stroke="#000000" points="320,-39.5 445,-39.5 "/>
<text text-anchor="start" x="328" y="-24.3" font-family="Times,serif" font-size="14.00" fill="#000000">_layout</text>
</g>
<!-- ApplicationController -->
<g id="node3" class="node">
<title>ApplicationController</title>
<path fill="none" stroke="#000000" d="M492,-176.5C492,-176.5 618,-176.5 618,-176.5 624,-176.5 630,-182.5 630,-188.5 630,-188.5 630,-257.5 630,-257.5 630,-263.5 624,-269.5 618,-269.5 618,-269.5 492,-269.5 492,-269.5 486,-269.5 480,-263.5 480,-257.5 480,-257.5 480,-188.5 480,-188.5 480,-182.5 486,-176.5 492,-176.5"/>
<text text-anchor="middle" x="555" y="-254.3" font-family="Times,serif" font-size="14.00" fill="#000000">ApplicationController</text>
<polyline fill="none" stroke="#000000" points="480,-246.5 630,-246.5 "/>
<text text-anchor="start" x="488" y="-231.3" font-family="Times,serif" font-size="14.00" fill="#000000">get_current_user_email</text>
<polyline fill="none" stroke="#000000" points="480,-223.5 630,-223.5 "/>
<polyline fill="none" stroke="#000000" points="480,-199.5 630,-199.5 "/>
<text text-anchor="start" x="488" y="-184.3" font-family="Times,serif" font-size="14.00" fill="#000000">_layout</text>
</g>
<!-- ConversationsController -->
<g id="node4" class="node">
<title>ConversationsController</title>
<path fill="none" stroke="#000000" d="M492,-.5C492,-.5 625,-.5 625,-.5 631,-.5 637,-6.5 637,-12.5 637,-12.5 637,-126.5 637,-126.5 637,-132.5 631,-138.5 625,-138.5 625,-138.5 492,-138.5 492,-138.5 486,-138.5 480,-132.5 480,-126.5 480,-126.5 480,-12.5 480,-12.5 480,-6.5 486,-.5 492,-.5"/>
<text text-anchor="middle" x="558.5" y="-123.3" font-family="Times,serif" font-size="14.00" fill="#000000">ConversationsController</text>
<polyline fill="none" stroke="#000000" points="480,-115.5 637,-115.5 "/>
<text text-anchor="start" x="488" y="-100.3" font-family="Times,serif" font-size="14.00" fill="#000000">index</text>
<text text-anchor="start" x="488" y="-85.3" font-family="Times,serif" font-size="14.00" fill="#000000">show</text>
<polyline fill="none" stroke="#000000" points="480,-77.5 637,-77.5 "/>
<polyline fill="none" stroke="#000000" points="480,-53.5 637,-53.5 "/>
<text text-anchor="start" x="488" y="-38.3" font-family="Times,serif" font-size="14.00" fill="#000000">_layout</text>
<text text-anchor="start" x="488" y="-23.3" font-family="Times,serif" font-size="14.00" fill="#000000">check_participating!</text>
<text text-anchor="start" x="488" y="-8.3" font-family="Times,serif" font-size="14.00" fill="#000000">set_conversation</text>
</g>
<!-- PersonalMessagesController -->
<g id="node5" class="node">
<title>PersonalMessagesController</title>
<path fill="none" stroke="#000000" d="M124,-384.5C124,-384.5 278,-384.5 278,-384.5 284,-384.5 290,-390.5 290,-396.5 290,-396.5 290,-510.5 290,-510.5 290,-516.5 284,-522.5 278,-522.5 278,-522.5 124,-522.5 124,-522.5 118,-522.5 112,-516.5 112,-510.5 112,-510.5 112,-396.5 112,-396.5 112,-390.5 118,-384.5 124,-384.5"/>
<text text-anchor="middle" x="201" y="-507.3" font-family="Times,serif" font-size="14.00" fill="#000000">PersonalMessagesController</text>
<polyline fill="none" stroke="#000000" points="112,-499.5 290,-499.5 "/>
<text text-anchor="start" x="120" y="-484.3" font-family="Times,serif" font-size="14.00" fill="#000000">create</text>
<text text-anchor="start" x="120" y="-469.3" font-family="Times,serif" font-size="14.00" fill="#000000">new</text>
<polyline fill="none" stroke="#000000" points="112,-461.5 290,-461.5 "/>
<polyline fill="none" stroke="#000000" points="112,-437.5 290,-437.5 "/>
<text text-anchor="start" x="120" y="-422.3" font-family="Times,serif" font-size="14.00" fill="#000000">_layout</text>
<text text-anchor="start" x="120" y="-407.3" font-family="Times,serif" font-size="14.00" fill="#000000">find_conversation!</text>
<text text-anchor="start" x="120" y="-392.3" font-family="Times,serif" font-size="14.00" fill="#000000">personal_message_params</text>
</g>
<!-- StaticController -->
<g id="node6" class="node">
<title>StaticController</title>
<path fill="none" stroke="#000000" d="M44,-208.5C44,-208.5 127,-208.5 127,-208.5 133,-208.5 139,-214.5 139,-220.5 139,-220.5 139,-334.5 139,-334.5 139,-340.5 133,-346.5 127,-346.5 127,-346.5 44,-346.5 44,-346.5 38,-346.5 32,-340.5 32,-334.5 32,-334.5 32,-220.5 32,-220.5 32,-214.5 38,-208.5 44,-208.5"/>
<text text-anchor="middle" x="85.5" y="-331.3" font-family="Times,serif" font-size="14.00" fill="#000000">StaticController</text>
<polyline fill="none" stroke="#000000" points="32,-323.5 139,-323.5 "/>
<text text-anchor="start" x="40" y="-308.3" font-family="Times,serif" font-size="14.00" fill="#000000">about</text>
<text text-anchor="start" x="40" y="-293.3" font-family="Times,serif" font-size="14.00" fill="#000000">contact</text>
<text text-anchor="start" x="40" y="-278.3" font-family="Times,serif" font-size="14.00" fill="#000000">index</text>
<text text-anchor="start" x="40" y="-263.3" font-family="Times,serif" font-size="14.00" fill="#000000">profile</text>
<polyline fill="none" stroke="#000000" points="32,-255.5 139,-255.5 "/>
<polyline fill="none" stroke="#000000" points="32,-231.5 139,-231.5 "/>
<text text-anchor="start" x="40" y="-216.3" font-family="Times,serif" font-size="14.00" fill="#000000">_layout</text>
</g>
<!-- PostsController -->
<g id="node7" class="node">
<title>PostsController</title>
<path fill="none" stroke="#000000" d="M188,-96.5C188,-96.5 269,-96.5 269,-96.5 275,-96.5 281,-102.5 281,-108.5 281,-108.5 281,-342.5 281,-342.5 281,-348.5 275,-354.5 269,-354.5 269,-354.5 188,-354.5 188,-354.5 182,-354.5 176,-348.5 176,-342.5 176,-342.5 176,-108.5 176,-108.5 176,-102.5 182,-96.5 188,-96.5"/>
<text text-anchor="middle" x="228.5" y="-339.3" font-family="Times,serif" font-size="14.00" fill="#000000">PostsController</text>
<polyline fill="none" stroke="#000000" points="176,-331.5 281,-331.5 "/>
<text text-anchor="start" x="184" y="-316.3" font-family="Times,serif" font-size="14.00" fill="#000000">create</text>
<text text-anchor="start" x="184" y="-301.3" font-family="Times,serif" font-size="14.00" fill="#000000">destroy</text>
<text text-anchor="start" x="184" y="-286.3" font-family="Times,serif" font-size="14.00" fill="#000000">downvote</text>
<text text-anchor="start" x="184" y="-271.3" font-family="Times,serif" font-size="14.00" fill="#000000">edit</text>
<text text-anchor="start" x="184" y="-256.3" font-family="Times,serif" font-size="14.00" fill="#000000">index</text>
<text text-anchor="start" x="184" y="-241.3" font-family="Times,serif" font-size="14.00" fill="#000000">new</text>
<text text-anchor="start" x="184" y="-226.3" font-family="Times,serif" font-size="14.00" fill="#000000">show</text>
<text text-anchor="start" x="184" y="-211.3" font-family="Times,serif" font-size="14.00" fill="#000000">update</text>
<text text-anchor="start" x="184" y="-196.3" font-family="Times,serif" font-size="14.00" fill="#000000">upload_image</text>
<text text-anchor="start" x="184" y="-181.3" font-family="Times,serif" font-size="14.00" fill="#000000">upvote</text>
<polyline fill="none" stroke="#000000" points="176,-173.5 281,-173.5 "/>
<polyline fill="none" stroke="#000000" points="176,-149.5 281,-149.5 "/>
<text text-anchor="start" x="184" y="-134.3" font-family="Times,serif" font-size="14.00" fill="#000000">_layout</text>
<text text-anchor="start" x="184" y="-119.3" font-family="Times,serif" font-size="14.00" fill="#000000">post_params</text>
<text text-anchor="start" x="184" y="-104.3" font-family="Times,serif" font-size="14.00" fill="#000000">set_post</text>
</g>
<!-- UsersController -->
<g id="node8" class="node">
<title>UsersController</title>
<path fill="none" stroke="#000000" d="M524,-512.5C524,-512.5 607,-512.5 607,-512.5 613,-512.5 619,-518.5 619,-524.5 619,-524.5 619,-608.5 619,-608.5 619,-614.5 613,-620.5 607,-620.5 607,-620.5 524,-620.5 524,-620.5 518,-620.5 512,-614.5 512,-608.5 512,-608.5 512,-524.5 512,-524.5 512,-518.5 518,-512.5 524,-512.5"/>
<text text-anchor="middle" x="565.5" y="-605.3" font-family="Times,serif" font-size="14.00" fill="#000000">UsersController</text>
<polyline fill="none" stroke="#000000" points="512,-597.5 619,-597.5 "/>
<text text-anchor="start" x="520" y="-582.3" font-family="Times,serif" font-size="14.00" fill="#000000">index</text>
<text text-anchor="start" x="520" y="-567.3" font-family="Times,serif" font-size="14.00" fill="#000000">show</text>
<polyline fill="none" stroke="#000000" points="512,-559.5 619,-559.5 "/>
<polyline fill="none" stroke="#000000" points="512,-535.5 619,-535.5 "/>
<text text-anchor="start" x="520" y="-520.3" font-family="Times,serif" font-size="14.00" fill="#000000">_layout</text>
</g>
<!-- QuestionsController -->
<g id="node9" class="node">
<title>QuestionsController</title>
<path fill="none" stroke="#000000" d="M332,-160.5C332,-160.5 440,-160.5 440,-160.5 446,-160.5 452,-166.5 452,-172.5 452,-172.5 452,-361.5 452,-361.5 452,-367.5 446,-373.5 440,-373.5 440,-373.5 332,-373.5 332,-373.5 326,-373.5 320,-367.5 320,-361.5 320,-361.5 320,-172.5 320,-172.5 320,-166.5 326,-160.5 332,-160.5"/>
<text text-anchor="middle" x="386" y="-358.3" font-family="Times,serif" font-size="14.00" fill="#000000">QuestionsController</text>
<polyline fill="none" stroke="#000000" points="320,-350.5 452,-350.5 "/>
<text text-anchor="start" x="328" y="-335.3" font-family="Times,serif" font-size="14.00" fill="#000000">create</text>
<text text-anchor="start" x="328" y="-320.3" font-family="Times,serif" font-size="14.00" fill="#000000">destroy</text>
<text text-anchor="start" x="328" y="-305.3" font-family="Times,serif" font-size="14.00" fill="#000000">edit</text>
<text text-anchor="start" x="328" y="-290.3" font-family="Times,serif" font-size="14.00" fill="#000000">index</text>
<text text-anchor="start" x="328" y="-275.3" font-family="Times,serif" font-size="14.00" fill="#000000">new</text>
<text text-anchor="start" x="328" y="-260.3" font-family="Times,serif" font-size="14.00" fill="#000000">show</text>
<text text-anchor="start" x="328" y="-245.3" font-family="Times,serif" font-size="14.00" fill="#000000">update</text>
<polyline fill="none" stroke="#000000" points="320,-237.5 452,-237.5 "/>
<polyline fill="none" stroke="#000000" points="320,-213.5 452,-213.5 "/>
<text text-anchor="start" x="328" y="-198.3" font-family="Times,serif" font-size="14.00" fill="#000000">_layout</text>
<text text-anchor="start" x="328" y="-183.3" font-family="Times,serif" font-size="14.00" fill="#000000">question_params</text>
<text text-anchor="start" x="328" y="-168.3" font-family="Times,serif" font-size="14.00" fill="#000000">set_question</text>
</g>
<!-- CommentsController -->
<g id="node10" class="node">
<title>CommentsController</title>
<path fill="none" stroke="#000000" d="M12,-64.5C12,-64.5 125,-64.5 125,-64.5 131,-64.5 137,-70.5 137,-76.5 137,-76.5 137,-160.5 137,-160.5 137,-166.5 131,-172.5 125,-172.5 125,-172.5 12,-172.5 12,-172.5 6,-172.5 0,-166.5 0,-160.5 0,-160.5 0,-76.5 0,-76.5 0,-70.5 6,-64.5 12,-64.5"/>
<text text-anchor="middle" x="68.5" y="-157.3" font-family="Times,serif" font-size="14.00" fill="#000000">CommentsController</text>
<polyline fill="none" stroke="#000000" points="0,-149.5 137,-149.5 "/>
<text text-anchor="start" x="8" y="-134.3" font-family="Times,serif" font-size="14.00" fill="#000000">create</text>
<text text-anchor="start" x="8" y="-119.3" font-family="Times,serif" font-size="14.00" fill="#000000">destroy</text>
<polyline fill="none" stroke="#000000" points="0,-111.5 137,-111.5 "/>
<polyline fill="none" stroke="#000000" points="0,-87.5 137,-87.5 "/>
<text text-anchor="start" x="8" y="-72.3" font-family="Times,serif" font-size="14.00" fill="#000000">_layout</text>
</g>
</g>
</svg>
