<?xml version="1.0" encoding="UTF-8" standalone="no"?>
<!DOCTYPE svg PUBLIC "-//W3C//DTD SVG 1.1//EN"
 "http://www.w3.org/Graphics/SVG/1.1/DTD/svg11.dtd">
<!-- Generated by graphviz version 2.40.1 (20161225.0304)
 -->
<!-- Title: models_diagram Pages: 1 -->
<svg width="700pt" height="260pt"
 viewBox="0.00 0.00 700.29 260.00" xmlns="http://www.w3.org/2000/svg" xmlns:xlink="http://www.w3.org/1999/xlink">
<g id="graph0" class="graph" transform="scale(1 1) rotate(0) translate(4 256)">
<title>models_diagram</title>
<polygon fill="transparent" stroke="transparent" points="-4,4 -4,-256 696.2918,-256 696.2918,4 -4,4"/>
<!-- _diagram_info -->
<g id="node1" class="node">
<title>_diagram_info</title>
<text text-anchor="start" x="58.0957" y="-237.6" font-family="Times,serif" font-size="13.00" fill="#000000">Models diagram</text>
<text text-anchor="start" x="58.0957" y="-223.6" font-family="Times,serif" font-size="13.00" fill="#000000">Date: Jun 25 2017 &#45; 06:44</text>
<text text-anchor="start" x="58.0957" y="-209.6" font-family="Times,serif" font-size="13.00" fill="#000000">Migration version: 20170623073627</text>
<text text-anchor="start" x="58.0957" y="-195.6" font-family="Times,serif" font-size="13.00" fill="#000000">Generated by RailRoady 1.5.3</text>
<text text-anchor="start" x="58.0957" y="-181.6" font-family="Times,serif" font-size="13.00" fill="#000000">http://railroady.prestonlee.com</text>
</g>
<!-- Post -->
<g id="node2" class="node">
<title>Post</title>
<ellipse fill="none" stroke="#000000" cx="128.0957" cy="-105" rx="27" ry="18"/>
<text text-anchor="middle" x="128.0957" y="-101.3" font-family="Times,serif" font-size="14.00" fill="#000000">Post</text>
</g>
<!-- Comment -->
<g id="node8" class="node">
<title>Comment</title>
<ellipse fill="none" stroke="#000000" cx="48.0957" cy="-18" rx="48.1917" ry="18"/>
<text text-anchor="middle" x="48.0957" y="-14.3" font-family="Times,serif" font-size="14.00" fill="#000000">Comment</text>
</g>
<!-- Post&#45;&gt;Comment -->
<g id="edge1" class="edge">
<title>Post&#45;&gt;Comment</title>
<path fill="none" stroke="#98224a" d="M108.2201,-83.3852C96.8956,-71.0699 82.6611,-55.5898 70.8854,-42.7837"/>
<ellipse fill="none" stroke="#98224a" cx="111.0858" cy="-86.5017" rx="4" ry="4"/>
<polygon fill="#98224a" stroke="#98224a" points="70.6878,-42.5689 67.2315,-32.1619 67.3035,-38.8884 63.9191,-35.2079 63.9191,-35.2079 63.9191,-35.2079 67.3035,-38.8884 60.6066,-38.2538 70.6878,-42.5689 70.6878,-42.5689"/>
</g>
<!-- ActsAsVotable::Vote -->
<g id="node11" class="node">
<title>ActsAsVotable::Vote</title>
<ellipse fill="none" stroke="#000000" cx="202.0957" cy="-18" rx="87.9851" ry="18"/>
<text text-anchor="middle" x="202.0957" y="-14.3" font-family="Times,serif" font-size="14.00" fill="#000000">ActsAsVotable::Vote</text>
</g>
<!-- Post&#45;&gt;ActsAsVotable::Vote -->
<g id="edge2" class="edge">
<title>Post&#45;&gt;ActsAsVotable::Vote</title>
<path fill="none" stroke="#688e44" d="M123.4451,-78.9388C123.2159,-70.4216 124.4645,-61.2874 129.0957,-54 133.0038,-47.8505 138.2991,-42.7178 144.2642,-38.4417"/>
<ellipse fill="none" stroke="#688e44" cx="123.7804" cy="-83.1715" rx="4" ry="4"/>
<polygon fill="#688e44" stroke="#688e44" points="144.2725,-38.4365 155.1358,-36.9398 148.5094,-35.7815 152.7463,-33.1266 152.7463,-33.1266 152.7463,-33.1266 148.5094,-35.7815 150.3568,-29.3133 144.2725,-38.4365 144.2725,-38.4365"/>
<text text-anchor="middle" x="156.5957" y="-57.8" font-family="Times,serif" font-size="14.00" fill="#000000">votes_for</text>
</g>
<!-- PersonalMessage -->
<g id="node3" class="node">
<title>PersonalMessage</title>
<ellipse fill="none" stroke="#000000" cx="437.0957" cy="-18" rx="74.187" ry="18"/>
<text text-anchor="middle" x="437.0957" y="-14.3" font-family="Times,serif" font-size="14.00" fill="#000000">PersonalMessage</text>
</g>
<!-- ApplicationRecord -->
<g id="node4" class="node">
<title>ApplicationRecord</title>
<ellipse fill="none" stroke="#000000" cx="437.0957" cy="-213" rx="81.4863" ry="18"/>
<text text-anchor="middle" x="437.0957" y="-209.3" font-family="Times,serif" font-size="14.00" fill="#000000">ApplicationRecord</text>
</g>
<!-- AdminUser -->
<g id="node5" class="node">
<title>AdminUser</title>
<ellipse fill="none" stroke="#000000" cx="590.0957" cy="-213" rx="53.8905" ry="18"/>
<text text-anchor="middle" x="590.0957" y="-209.3" font-family="Times,serif" font-size="14.00" fill="#000000">AdminUser</text>
</g>
<!-- Conversation -->
<g id="node6" class="node">
<title>Conversation</title>
<ellipse fill="none" stroke="#000000" cx="390.0957" cy="-105" rx="60.3893" ry="18"/>
<text text-anchor="middle" x="390.0957" y="-101.3" font-family="Times,serif" font-size="14.00" fill="#000000">Conversation</text>
</g>
<!-- Conversation&#45;&gt;PersonalMessage -->
<g id="edge3" class="edge">
<title>Conversation&#45;&gt;PersonalMessage</title>
<path fill="none" stroke="#334433" d="M403.8344,-79.5688C409.732,-68.6519 416.6272,-55.8886 422.6056,-44.8222"/>
<ellipse fill="none" stroke="#334433" cx="401.7354" cy="-83.4543" rx="4" ry="4"/>
<polygon fill="#334433" stroke="#334433" points="422.6167,-44.8016 431.329,-38.1423 424.9932,-40.4025 427.3698,-36.0034 427.3698,-36.0034 427.3698,-36.0034 424.9932,-40.4025 423.4106,-33.8645 422.6167,-44.8016 422.6167,-44.8016"/>
</g>
<!-- User -->
<g id="node7" class="node">
<title>User</title>
<ellipse fill="none" stroke="#000000" cx="310.0957" cy="-213" rx="27.8951" ry="18"/>
<text text-anchor="middle" x="310.0957" y="-209.3" font-family="Times,serif" font-size="14.00" fill="#000000">User</text>
</g>
<!-- User&#45;&gt;Post -->
<g id="edge4" class="edge">
<title>User&#45;&gt;Post</title>
<path fill="none" stroke="#58c75c" d="M292.8693,-190.2036C287.1992,-184.0966 280.4445,-178.0685 273.0957,-174 237.7891,-154.453 220.0922,-174.2455 184.0957,-156 170.6365,-149.1779 157.9917,-138.2248 148.1354,-128.2147"/>
<ellipse fill="none" stroke="#58c75c" cx="295.5299" cy="-193.2532" rx="4" ry="4"/>
<polygon fill="#58c75c" stroke="#58c75c" points="148.0327,-128.1056 144.4496,-117.7416 144.6036,-124.4667 141.1745,-120.8277 141.1745,-120.8277 141.1745,-120.8277 144.6036,-124.4667 137.8995,-123.9139 148.0327,-128.1056 148.0327,-128.1056"/>
</g>
<!-- User&#45;&gt;PersonalMessage -->
<g id="edge11" class="edge">
<title>User&#45;&gt;PersonalMessage</title>
<path fill="none" stroke="#b33afc" d="M326.8149,-190.0802C332.5341,-183.8532 339.4431,-177.7902 347.0957,-174 380.3462,-157.5319 488.313,-183.6153 513.0957,-156 544.3835,-121.1362 499.79,-71.1543 466.8436,-41.8876"/>
<ellipse fill="none" stroke="#b33afc" cx="324.1087" cy="-193.244" rx="4" ry="4"/>
<polygon fill="#b33afc" stroke="#b33afc" points="466.7526,-41.8089 462.1335,-31.8633 462.971,-38.5378 459.1895,-35.2667 459.1895,-35.2667 459.1895,-35.2667 462.971,-38.5378 456.2455,-38.6701 466.7526,-41.8089 466.7526,-41.8089"/>
</g>
<!-- User&#45;&gt;Conversation -->
<g id="edge9" class="edge">
<title>User&#45;&gt;Conversation</title>
<path fill="none" stroke="#565d3a" d="M291.6301,-190.4865C286.089,-184.6221 279.7123,-178.6511 273.0957,-174 256.8148,-162.5554 242.9779,-172.6622 232.0957,-156 228.4503,-150.4183 227.9382,-146.2114 232.0957,-141 243.6114,-126.5653 284.861,-117.4684 322.3231,-112.0305"/>
<ellipse fill="none" stroke="#565d3a" cx="294.6035" cy="-193.7741" rx="4" ry="4"/>
<polygon fill="#565d3a" stroke="#565d3a" points="322.3456,-112.0275 332.8673,-115.1168 327.2986,-111.3433 332.2515,-110.6591 332.2515,-110.6591 332.2515,-110.6591 327.2986,-111.3433 331.6358,-106.2014 322.3456,-112.0275 322.3456,-112.0275"/>
<text text-anchor="middle" x="300.0957" y="-144.8" font-family="Times,serif" font-size="14.00" fill="#000000">authored_conversations</text>
</g>
<!-- User&#45;&gt;Conversation -->
<g id="edge10" class="edge">
<title>User&#45;&gt;Conversation</title>
<path fill="none" stroke="#93cbea" d="M330.1191,-191.0997C335.5171,-185.4173 341.4331,-179.3839 347.0957,-174 356.0045,-165.5298 360.8068,-165.8986 368.0957,-156 373.2988,-148.934 377.5827,-140.4472 380.9435,-132.4426"/>
<ellipse fill="none" stroke="#93cbea" cx="327.2399" cy="-194.1649" rx="4" ry="4"/>
<polygon fill="#93cbea" stroke="#93cbea" points="380.9715,-132.3702 388.7807,-124.6717 382.7781,-127.708 384.5847,-123.0458 384.5847,-123.0458 384.5847,-123.0458 382.7781,-127.708 380.3887,-121.4198 380.9715,-132.3702 380.9715,-132.3702"/>
<text text-anchor="middle" x="442.5957" y="-144.8" font-family="Times,serif" font-size="14.00" fill="#000000">received_conversations</text>
</g>
<!-- User&#45;&gt;Comment -->
<g id="edge5" class="edge">
<title>User&#45;&gt;Comment</title>
<path fill="none" stroke="#d8d6e7" d="M293.2564,-190.3155C287.5326,-184.0973 280.6513,-177.9801 273.0957,-174 199.151,-135.0479 149.5463,-183.7003 92.0957,-123 71.7129,-101.4642 60.109,-69.1095 53.9947,-46.0122"/>
<ellipse fill="none" stroke="#d8d6e7" cx="295.9659" cy="-193.4611" rx="4" ry="4"/>
<polygon fill="#d8d6e7" stroke="#d8d6e7" points="53.9508,-45.8336 55.9294,-35.0477 52.7554,-40.9786 51.5599,-36.1236 51.5599,-36.1236 51.5599,-36.1236 52.7554,-40.9786 47.1904,-37.1995 53.9508,-45.8336 53.9508,-45.8336"/>
</g>
<!-- Answer -->
<g id="node9" class="node">
<title>Answer</title>
<ellipse fill="none" stroke="#000000" cx="608.0957" cy="-18" rx="39.7935" ry="18"/>
<text text-anchor="middle" x="608.0957" y="-14.3" font-family="Times,serif" font-size="14.00" fill="#000000">Answer</text>
</g>
<!-- User&#45;&gt;Answer -->
<g id="edge7" class="edge">
<title>User&#45;&gt;Answer</title>
<path fill="none" stroke="#6c956f" d="M326.7904,-190.0304C332.5087,-183.8015 339.4233,-177.7499 347.0957,-174 420.9182,-137.9188 462.351,-201.0085 531.0957,-156 570.0342,-130.5063 591.1788,-78.2017 601.0136,-45.814"/>
<ellipse fill="none" stroke="#6c956f" cx="324.0848" cy="-193.198" rx="4" ry="4"/>
<polygon fill="#6c956f" stroke="#6c956f" points="601.0553,-45.6685 608.1424,-37.3005 602.4364,-40.863 603.8175,-36.0575 603.8175,-36.0575 603.8175,-36.0575 602.4364,-40.863 599.4925,-34.8145 601.0553,-45.6685 601.0553,-45.6685"/>
</g>
<!-- Question -->
<g id="node10" class="node">
<title>Question</title>
<ellipse fill="none" stroke="#000000" cx="648.0957" cy="-105" rx="44.393" ry="18"/>
<text text-anchor="middle" x="648.0957" y="-101.3" font-family="Times,serif" font-size="14.00" fill="#000000">Question</text>
</g>
<!-- User&#45;&gt;Question -->
<g id="edge6" class="edge">
<title>User&#45;&gt;Question</title>
<path fill="none" stroke="#0905dd" d="M326.7363,-189.918C332.4526,-183.685 339.3796,-177.6592 347.0957,-174 444.946,-127.596 490.2478,-197.9331 590.0957,-156 603.9863,-150.1664 616.8565,-139.6291 626.9263,-129.6408"/>
<ellipse fill="none" stroke="#0905dd" cx="324.0321" cy="-193.0945" rx="4" ry="4"/>
<polygon fill="#0905dd" stroke="#0905dd" points="627.1367,-129.421 637.3022,-125.3083 630.594,-125.8089 634.0513,-122.1967 634.0513,-122.1967 634.0513,-122.1967 630.594,-125.8089 630.8004,-119.0852 627.1367,-129.421 627.1367,-129.421"/>
</g>
<!-- User&#45;&gt;ActsAsVotable::Vote -->
<g id="edge8" class="edge">
<title>User&#45;&gt;ActsAsVotable::Vote</title>
<path fill="none" stroke="#67467e" d="M291.7944,-190.2457C286.2546,-184.3794 279.8375,-178.4676 273.0957,-174 254.1034,-161.4141 239.5738,-173.5925 225.0957,-156 199.6919,-125.1313 197.4469,-76.9102 199.0824,-46.4104"/>
<ellipse fill="none" stroke="#67467e" cx="294.7616" cy="-193.5477" rx="4" ry="4"/>
<polygon fill="#67467e" stroke="#67467e" points="199.0835,-46.3938 204.2799,-36.7373 199.4373,-41.4063 199.7911,-36.4188 199.7911,-36.4188 199.7911,-36.4188 199.4373,-41.4063 195.3024,-36.1004 199.0835,-46.3938 199.0835,-46.3938"/>
<text text-anchor="middle" x="221.5957" y="-101.3" font-family="Times,serif" font-size="14.00" fill="#000000">votes</text>
</g>
<!-- Question&#45;&gt;Answer -->
<g id="edge12" class="edge">
<title>Question&#45;&gt;Answer</title>
<path fill="none" stroke="#161103" d="M636.3794,-79.5171C631.3746,-68.6315 625.5291,-55.9175 620.4556,-44.8826"/>
<ellipse fill="none" stroke="#161103" cx="638.1367" cy="-83.3393" rx="4" ry="4"/>
<polygon fill="#161103" stroke="#161103" points="620.4137,-44.7914 620.3248,-33.8259 618.325,-40.2485 616.2363,-35.7057 616.2363,-35.7057 616.2363,-35.7057 618.325,-40.2485 612.1477,-37.5855 620.4137,-44.7914 620.4137,-44.7914"/>
</g>
</g>
</svg>
