<?xml version="1.0" encoding="UTF-8" standalone="no"?>
<!DOCTYPE svg PUBLIC "-//W3C//DTD SVG 1.1//EN"
 "http://www.w3.org/Graphics/SVG/1.1/DTD/svg11.dtd">
<!-- Generated by graphviz version 2.40.1 (20161225.0304)
 -->
<!-- Title: models_diagram Pages: 1 -->
<svg width="915pt" height="656pt"
 viewBox="0.00 0.00 914.50 656.00" xmlns="http://www.w3.org/2000/svg" xmlns:xlink="http://www.w3.org/1999/xlink">
<g id="graph0" class="graph" transform="scale(1 1) rotate(0) translate(4 652)">
<title>models_diagram</title>
<polygon fill="transparent" stroke="transparent" points="-4,4 -4,-652 910.5,-652 910.5,4 -4,4"/>
<!-- _diagram_info -->
<g id="node1" class="node">
<title>_diagram_info</title>
<text text-anchor="start" x="36.5" y="-529.1" font-family="Times,serif" font-size="13.00" fill="#000000">Models diagram</text>
<text text-anchor="start" x="36.5" y="-515.1" font-family="Times,serif" font-size="13.00" fill="#000000">Date: Jun 25 2017 &#45; 06:44</text>
<text text-anchor="start" x="36.5" y="-501.1" font-family="Times,serif" font-size="13.00" fill="#000000">Migration version: 20170623073627</text>
<text text-anchor="start" x="36.5" y="-487.1" font-family="Times,serif" font-size="13.00" fill="#000000">Generated by RailRoady 1.5.3</text>
<text text-anchor="start" x="36.5" y="-473.1" font-family="Times,serif" font-size="13.00" fill="#000000">http://railroady.prestonlee.com</text>
</g>
<!-- Post -->
<g id="node2" class="node">
<title>Post</title>
<path fill="none" stroke="#000000" d="M101,-188.5C101,-188.5 212,-188.5 212,-188.5 218,-188.5 224,-194.5 224,-200.5 224,-200.5 224,-297.5 224,-297.5 224,-303.5 218,-309.5 212,-309.5 212,-309.5 101,-309.5 101,-309.5 95,-309.5 89,-303.5 89,-297.5 89,-297.5 89,-200.5 89,-200.5 89,-194.5 95,-188.5 101,-188.5"/>
<text text-anchor="middle" x="156.5" y="-294.3" font-family="Times,serif" font-size="14.00" fill="#000000">Post</text>
<polyline fill="none" stroke="#000000" points="89,-286.5 224,-286.5 "/>
<text text-anchor="start" x="97" y="-271.3" font-family="Times,serif" font-size="14.00" fill="#000000">id :int(11)</text>
<text text-anchor="start" x="97" y="-256.3" font-family="Times,serif" font-size="14.00" fill="#000000">title :varchar(255)</text>
<text text-anchor="start" x="97" y="-241.3" font-family="Times,serif" font-size="14.00" fill="#000000">body :text</text>
<text text-anchor="start" x="97" y="-226.3" font-family="Times,serif" font-size="14.00" fill="#000000">created_at :datetime</text>
<text text-anchor="start" x="97" y="-211.3" font-family="Times,serif" font-size="14.00" fill="#000000">updated_at :datetime</text>
<text text-anchor="start" x="97" y="-196.3" font-family="Times,serif" font-size="14.00" fill="#000000">user_id :int(11)</text>
</g>
<!-- Comment -->
<g id="node8" class="node">
<title>Comment</title>
<path fill="none" stroke="#000000" d="M12,-8C12,-8 123,-8 123,-8 129,-8 135,-14 135,-20 135,-20 135,-117 135,-117 135,-123 129,-129 123,-129 123,-129 12,-129 12,-129 6,-129 0,-123 0,-117 0,-117 0,-20 0,-20 0,-14 6,-8 12,-8"/>
<text text-anchor="middle" x="67.5" y="-113.8" font-family="Times,serif" font-size="14.00" fill="#000000">Comment</text>
<polyline fill="none" stroke="#000000" points="0,-106 135,-106 "/>
<text text-anchor="start" x="8" y="-90.8" font-family="Times,serif" font-size="14.00" fill="#000000">id :int(11)</text>
<text text-anchor="start" x="8" y="-75.8" font-family="Times,serif" font-size="14.00" fill="#000000">body :text</text>
<text text-anchor="start" x="8" y="-60.8" font-family="Times,serif" font-size="14.00" fill="#000000">created_at :datetime</text>
<text text-anchor="start" x="8" y="-45.8" font-family="Times,serif" font-size="14.00" fill="#000000">updated_at :datetime</text>
<text text-anchor="start" x="8" y="-30.8" font-family="Times,serif" font-size="14.00" fill="#000000">user_id :int(11)</text>
<text text-anchor="start" x="8" y="-15.8" font-family="Times,serif" font-size="14.00" fill="#000000">post_id :int(11)</text>
</g>
<!-- Post&#45;&gt;Comment -->
<g id="edge1" class="edge">
<title>Post&#45;&gt;Comment</title>
<path fill="none" stroke="#5b0a8b" d="M123.0524,-181.1653C116.157,-167.1807 108.8836,-152.4296 101.9532,-138.3742"/>
<ellipse fill="none" stroke="#5b0a8b" cx="124.8477" cy="-184.8064" rx="4" ry="4"/>
<polygon fill="#5b0a8b" stroke="#5b0a8b" points="101.8784,-138.2223 101.492,-127.2632 99.6671,-133.7378 97.4559,-129.2533 97.4559,-129.2533 97.4559,-129.2533 99.6671,-133.7378 93.4199,-131.2434 101.8784,-138.2223 101.8784,-138.2223"/>
</g>
<!-- ActsAsVotable::Vote -->
<g id="node11" class="node">
<title>ActsAsVotable::Vote</title>
<ellipse fill="none" stroke="#000000" cx="247.5" cy="-68.5" rx="87.9851" ry="18"/>
<text text-anchor="middle" x="247.5" y="-64.8" font-family="Times,serif" font-size="14.00" fill="#000000">ActsAsVotable::Vote</text>
</g>
<!-- Post&#45;&gt;ActsAsVotable::Vote -->
<g id="edge2" class="edge">
<title>Post&#45;&gt;ActsAsVotable::Vote</title>
<path fill="none" stroke="#e238d1" d="M179.7802,-181.0395C183.4112,-172.1507 187.3475,-163.2669 191.5,-155 202.1674,-133.7632 216.8433,-111.2742 228.4951,-94.5512"/>
<ellipse fill="none" stroke="#e238d1" cx="178.2872" cy="-184.7789" rx="4" ry="4"/>
<polygon fill="#e238d1" stroke="#e238d1" points="228.5054,-94.5365 237.9507,-88.9654 231.3903,-90.4528 234.2753,-86.369 234.2753,-86.369 234.2753,-86.369 231.3903,-90.4528 230.5999,-83.7725 228.5054,-94.5365 228.5054,-94.5365"/>
<text text-anchor="middle" x="219" y="-158.8" font-family="Times,serif" font-size="14.00" fill="#000000">votes_for</text>
</g>
<!-- PersonalMessage -->
<g id="node3" class="node">
<title>PersonalMessage</title>
<path fill="none" stroke="#000000" d="M431,-8C431,-8 562,-8 562,-8 568,-8 574,-14 574,-20 574,-20 574,-117 574,-117 574,-123 568,-129 562,-129 562,-129 431,-129 431,-129 425,-129 419,-123 419,-117 419,-117 419,-20 419,-20 419,-14 425,-8 431,-8"/>
<text text-anchor="middle" x="496.5" y="-113.8" font-family="Times,serif" font-size="14.00" fill="#000000">PersonalMessage</text>
<polyline fill="none" stroke="#000000" points="419,-106 574,-106 "/>
<text text-anchor="start" x="427" y="-90.8" font-family="Times,serif" font-size="14.00" fill="#000000">id :int(11)</text>
<text text-anchor="start" x="427" y="-75.8" font-family="Times,serif" font-size="14.00" fill="#000000">body :text</text>
<text text-anchor="start" x="427" y="-60.8" font-family="Times,serif" font-size="14.00" fill="#000000">conversation_id :int(11)</text>
<text text-anchor="start" x="427" y="-45.8" font-family="Times,serif" font-size="14.00" fill="#000000">user_id :int(11)</text>
<text text-anchor="start" x="427" y="-30.8" font-family="Times,serif" font-size="14.00" fill="#000000">created_at :datetime</text>
<text text-anchor="start" x="427" y="-15.8" font-family="Times,serif" font-size="14.00" fill="#000000">updated_at :datetime</text>
</g>
<!-- ApplicationRecord -->
<g id="node4" class="node">
<title>ApplicationRecord</title>
<ellipse fill="none" stroke="#000000" cx="583.5" cy="-504.5" rx="81.4863" ry="18"/>
<text text-anchor="middle" x="583.5" y="-500.8" font-family="Times,serif" font-size="14.00" fill="#000000">ApplicationRecord</text>
</g>
<!-- AdminUser -->
<g id="node5" class="node">
<title>AdminUser</title>
<path fill="none" stroke="#000000" d="M694.5,-391.5C694.5,-391.5 894.5,-391.5 894.5,-391.5 900.5,-391.5 906.5,-397.5 906.5,-403.5 906.5,-403.5 906.5,-605.5 906.5,-605.5 906.5,-611.5 900.5,-617.5 894.5,-617.5 894.5,-617.5 694.5,-617.5 694.5,-617.5 688.5,-617.5 682.5,-611.5 682.5,-605.5 682.5,-605.5 682.5,-403.5 682.5,-403.5 682.5,-397.5 688.5,-391.5 694.5,-391.5"/>
<text text-anchor="middle" x="794.5" y="-602.3" font-family="Times,serif" font-size="14.00" fill="#000000">AdminUser</text>
<polyline fill="none" stroke="#000000" points="682.5,-594.5 906.5,-594.5 "/>
<text text-anchor="start" x="690.5" y="-579.3" font-family="Times,serif" font-size="14.00" fill="#000000">id :int(11)</text>
<text text-anchor="start" x="690.5" y="-564.3" font-family="Times,serif" font-size="14.00" fill="#000000">email :varchar(255)</text>
<text text-anchor="start" x="690.5" y="-549.3" font-family="Times,serif" font-size="14.00" fill="#000000">encrypted_password :varchar(255)</text>
<text text-anchor="start" x="690.5" y="-534.3" font-family="Times,serif" font-size="14.00" fill="#000000">reset_password_token :varchar(255)</text>
<text text-anchor="start" x="690.5" y="-519.3" font-family="Times,serif" font-size="14.00" fill="#000000">reset_password_sent_at :datetime</text>
<text text-anchor="start" x="690.5" y="-504.3" font-family="Times,serif" font-size="14.00" fill="#000000">remember_created_at :datetime</text>
<text text-anchor="start" x="690.5" y="-489.3" font-family="Times,serif" font-size="14.00" fill="#000000">sign_in_count :int(11)</text>
<text text-anchor="start" x="690.5" y="-474.3" font-family="Times,serif" font-size="14.00" fill="#000000">current_sign_in_at :datetime</text>
<text text-anchor="start" x="690.5" y="-459.3" font-family="Times,serif" font-size="14.00" fill="#000000">last_sign_in_at :datetime</text>
<text text-anchor="start" x="690.5" y="-444.3" font-family="Times,serif" font-size="14.00" fill="#000000">current_sign_in_ip :varchar(255)</text>
<text text-anchor="start" x="690.5" y="-429.3" font-family="Times,serif" font-size="14.00" fill="#000000">last_sign_in_ip :varchar(255)</text>
<text text-anchor="start" x="690.5" y="-414.3" font-family="Times,serif" font-size="14.00" fill="#000000">created_at :datetime</text>
<text text-anchor="start" x="690.5" y="-399.3" font-family="Times,serif" font-size="14.00" fill="#000000">updated_at :datetime</text>
</g>
<!-- Conversation -->
<g id="node6" class="node">
<title>Conversation</title>
<path fill="none" stroke="#000000" d="M397,-196C397,-196 508,-196 508,-196 514,-196 520,-202 520,-208 520,-208 520,-290 520,-290 520,-296 514,-302 508,-302 508,-302 397,-302 397,-302 391,-302 385,-296 385,-290 385,-290 385,-208 385,-208 385,-202 391,-196 397,-196"/>
<text text-anchor="middle" x="452.5" y="-286.8" font-family="Times,serif" font-size="14.00" fill="#000000">Conversation</text>
<polyline fill="none" stroke="#000000" points="385,-279 520,-279 "/>
<text text-anchor="start" x="393" y="-263.8" font-family="Times,serif" font-size="14.00" fill="#000000">id :int(11)</text>
<text text-anchor="start" x="393" y="-248.8" font-family="Times,serif" font-size="14.00" fill="#000000">author_id :int(11)</text>
<text text-anchor="start" x="393" y="-233.8" font-family="Times,serif" font-size="14.00" fill="#000000">receiver_id :int(11)</text>
<text text-anchor="start" x="393" y="-218.8" font-family="Times,serif" font-size="14.00" fill="#000000">created_at :datetime</text>
<text text-anchor="start" x="393" y="-203.8" font-family="Times,serif" font-size="14.00" fill="#000000">updated_at :datetime</text>
</g>
<!-- Conversation&#45;&gt;PersonalMessage -->
<g id="edge3" class="edge">
<title>Conversation&#45;&gt;PersonalMessage</title>
<path fill="none" stroke="#b4682c" d="M467.4081,-187.8427C471.2261,-172.1803 475.3632,-155.2088 479.2869,-139.113"/>
<ellipse fill="none" stroke="#b4682c" cx="466.4108" cy="-191.9341" rx="4" ry="4"/>
<polygon fill="#b4682c" stroke="#b4682c" points="479.3291,-138.9393 486.0695,-130.2896 480.5133,-134.0816 481.6975,-129.2238 481.6975,-129.2238 481.6975,-129.2238 480.5133,-134.0816 477.3255,-128.1581 479.3291,-138.9393 479.3291,-138.9393"/>
</g>
<!-- User -->
<g id="node7" class="node">
<title>User</title>
<path fill="none" stroke="#000000" d="M272.5,-361.5C272.5,-361.5 472.5,-361.5 472.5,-361.5 478.5,-361.5 484.5,-367.5 484.5,-373.5 484.5,-373.5 484.5,-635.5 484.5,-635.5 484.5,-641.5 478.5,-647.5 472.5,-647.5 472.5,-647.5 272.5,-647.5 272.5,-647.5 266.5,-647.5 260.5,-641.5 260.5,-635.5 260.5,-635.5 260.5,-373.5 260.5,-373.5 260.5,-367.5 266.5,-361.5 272.5,-361.5"/>
<text text-anchor="middle" x="372.5" y="-632.3" font-family="Times,serif" font-size="14.00" fill="#000000">User</text>
<polyline fill="none" stroke="#000000" points="260.5,-624.5 484.5,-624.5 "/>
<text text-anchor="start" x="268.5" y="-609.3" font-family="Times,serif" font-size="14.00" fill="#000000">id :int(11)</text>
<text text-anchor="start" x="268.5" y="-594.3" font-family="Times,serif" font-size="14.00" fill="#000000">email :varchar(255)</text>
<text text-anchor="start" x="268.5" y="-579.3" font-family="Times,serif" font-size="14.00" fill="#000000">encrypted_password :varchar(255)</text>
<text text-anchor="start" x="268.5" y="-564.3" font-family="Times,serif" font-size="14.00" fill="#000000">reset_password_token :varchar(255)</text>
<text text-anchor="start" x="268.5" y="-549.3" font-family="Times,serif" font-size="14.00" fill="#000000">reset_password_sent_at :datetime</text>
<text text-anchor="start" x="268.5" y="-534.3" font-family="Times,serif" font-size="14.00" fill="#000000">remember_created_at :datetime</text>
<text text-anchor="start" x="268.5" y="-519.3" font-family="Times,serif" font-size="14.00" fill="#000000">sign_in_count :int(11)</text>
<text text-anchor="start" x="268.5" y="-504.3" font-family="Times,serif" font-size="14.00" fill="#000000">current_sign_in_at :datetime</text>
<text text-anchor="start" x="268.5" y="-489.3" font-family="Times,serif" font-size="14.00" fill="#000000">last_sign_in_at :datetime</text>
<text text-anchor="start" x="268.5" y="-474.3" font-family="Times,serif" font-size="14.00" fill="#000000">current_sign_in_ip :varchar(255)</text>
<text text-anchor="start" x="268.5" y="-459.3" font-family="Times,serif" font-size="14.00" fill="#000000">last_sign_in_ip :varchar(255)</text>
<text text-anchor="start" x="268.5" y="-444.3" font-family="Times,serif" font-size="14.00" fill="#000000">confirmation_token :varchar(255)</text>
<text text-anchor="start" x="268.5" y="-429.3" font-family="Times,serif" font-size="14.00" fill="#000000">confirmed_at :datetime</text>
<text text-anchor="start" x="268.5" y="-414.3" font-family="Times,serif" font-size="14.00" fill="#000000">confirmation_sent_at :datetime</text>
<text text-anchor="start" x="268.5" y="-399.3" font-family="Times,serif" font-size="14.00" fill="#000000">unconfirmed_email :varchar(255)</text>
<text text-anchor="start" x="268.5" y="-384.3" font-family="Times,serif" font-size="14.00" fill="#000000">created_at :datetime</text>
<text text-anchor="start" x="268.5" y="-369.3" font-family="Times,serif" font-size="14.00" fill="#000000">updated_at :datetime</text>
</g>
<!-- User&#45;&gt;Post -->
<g id="edge4" class="edge">
<title>User&#45;&gt;Post</title>
<path fill="none" stroke="#daa127" d="M255.1093,-365.2684C253.9002,-363.8383 252.6968,-362.4152 251.5,-361 239.6223,-346.9553 226.8948,-331.9322 214.7397,-317.5973"/>
<ellipse fill="none" stroke="#daa127" cx="257.8617" cy="-368.5246" rx="4" ry="4"/>
<polygon fill="#daa127" stroke="#daa127" points="214.5228,-317.3416 211.4868,-306.8043 211.2888,-313.5282 208.0548,-309.7149 208.0548,-309.7149 208.0548,-309.7149 211.2888,-313.5282 204.6228,-312.6255 214.5228,-317.3416 214.5228,-317.3416"/>
</g>
<!-- User&#45;&gt;PersonalMessage -->
<g id="edge11" class="edge">
<title>User&#45;&gt;PersonalMessage</title>
<path fill="none" stroke="#f126ad" d="M491.5908,-362.1871C492.2254,-361.7869 492.8619,-361.3912 493.5,-361 523.4627,-342.6317 548.6597,-370.5347 570.5,-343 617.2758,-284.0285 582.0628,-197.9063 545.944,-137.9077"/>
<ellipse fill="none" stroke="#f126ad" cx="488.1944" cy="-364.4324" rx="4" ry="4"/>
<polygon fill="#f126ad" stroke="#f126ad" points="545.8584,-137.7684 544.4508,-126.8933 543.2382,-133.5099 540.6181,-129.2514 540.6181,-129.2514 540.6181,-129.2514 543.2382,-133.5099 536.7854,-131.6095 545.8584,-137.7684 545.8584,-137.7684"/>
</g>
<!-- User&#45;&gt;Conversation -->
<g id="edge9" class="edge">
<title>User&#45;&gt;Conversation</title>
<path fill="none" stroke="#24ec12" d="M285.3153,-353.1607C286.5807,-344.5204 289.5107,-336.0729 294.5,-328 312.4724,-298.92 344.7495,-280.1863 375.4666,-268.3023"/>
<ellipse fill="none" stroke="#24ec12" cx="284.962" cy="-357.1602" rx="4" ry="4"/>
<polygon fill="#24ec12" stroke="#24ec12" points="375.5436,-268.2741 386.4817,-269.0549 380.2377,-266.5522 384.9319,-264.8302 384.9319,-264.8302 384.9319,-264.8302 380.2377,-266.5522 383.3821,-260.6055 375.5436,-268.2741 375.5436,-268.2741"/>
<text text-anchor="middle" x="362.5" y="-331.8" font-family="Times,serif" font-size="14.00" fill="#000000">authored_conversations</text>
</g>
<!-- User&#45;&gt;Conversation -->
<g id="edge10" class="edge">
<title>User&#45;&gt;Conversation</title>
<path fill="none" stroke="#999e79" d="M427.3306,-353.4974C428.4167,-349.9714 429.4749,-346.4686 430.5,-343 433.4157,-333.1338 436.198,-322.5946 438.7433,-312.2725"/>
<ellipse fill="none" stroke="#999e79" cx="426.1028" cy="-357.4309" rx="4" ry="4"/>
<polygon fill="#999e79" stroke="#999e79" points="438.7625,-312.1926 445.4821,-303.5268 439.935,-307.3321 441.1076,-302.4715 441.1076,-302.4715 441.1076,-302.4715 439.935,-307.3321 436.733,-301.4162 438.7625,-312.1926 438.7625,-312.1926"/>
<text text-anchor="middle" x="500" y="-331.8" font-family="Times,serif" font-size="14.00" fill="#000000">received_conversations</text>
</g>
<!-- User&#45;&gt;Comment -->
<g id="edge5" class="edge">
<title>User&#45;&gt;Comment</title>
<path fill="none" stroke="#5be832" d="M253.7434,-362.4896C252.9978,-361.9871 252.25,-361.4906 251.5,-361 184.7729,-317.3534 128.7694,-372.6902 79.5,-310 42.0326,-262.3267 43.0249,-191.5693 51.0049,-138.9536"/>
<ellipse fill="none" stroke="#5be832" cx="257.1213" cy="-364.8637" rx="4" ry="4"/>
<polygon fill="#5be832" stroke="#5be832" points="51.0157,-138.887 57.0677,-129.7424 51.8211,-133.9523 52.6265,-129.0176 52.6265,-129.0176 52.6265,-129.0176 51.8211,-133.9523 48.1853,-128.2927 51.0157,-138.887 51.0157,-138.887"/>
</g>
<!-- Answer -->
<g id="node9" class="node">
<title>Answer</title>
<path fill="none" stroke="#000000" d="M628,-.5C628,-.5 739,-.5 739,-.5 745,-.5 751,-6.5 751,-12.5 751,-12.5 751,-124.5 751,-124.5 751,-130.5 745,-136.5 739,-136.5 739,-136.5 628,-136.5 628,-136.5 622,-136.5 616,-130.5 616,-124.5 616,-124.5 616,-12.5 616,-12.5 616,-6.5 622,-.5 628,-.5"/>
<text text-anchor="middle" x="683.5" y="-121.3" font-family="Times,serif" font-size="14.00" fill="#000000">Answer</text>
<polyline fill="none" stroke="#000000" points="616,-113.5 751,-113.5 "/>
<text text-anchor="start" x="624" y="-98.3" font-family="Times,serif" font-size="14.00" fill="#000000">id :int(11)</text>
<text text-anchor="start" x="624" y="-83.3" font-family="Times,serif" font-size="14.00" fill="#000000">body :text</text>
<text text-anchor="start" x="624" y="-68.3" font-family="Times,serif" font-size="14.00" fill="#000000">post_id :int(11)</text>
<text text-anchor="start" x="624" y="-53.3" font-family="Times,serif" font-size="14.00" fill="#000000">user_id :int(11)</text>
<text text-anchor="start" x="624" y="-38.3" font-family="Times,serif" font-size="14.00" fill="#000000">created_at :datetime</text>
<text text-anchor="start" x="624" y="-23.3" font-family="Times,serif" font-size="14.00" fill="#000000">updated_at :datetime</text>
<text text-anchor="start" x="624" y="-8.3" font-family="Times,serif" font-size="14.00" fill="#000000">question_id :int(11)</text>
</g>
<!-- User&#45;&gt;Answer -->
<g id="edge7" class="edge">
<title>User&#45;&gt;Answer</title>
<path fill="none" stroke="#b9acbb" d="M491.5667,-362.147C492.2093,-361.76 492.8537,-361.3776 493.5,-361 530.6048,-339.3216 555.9789,-371.0908 588.5,-343 618.7074,-316.9078 647.8827,-218.1195 665.7513,-146.5195"/>
<ellipse fill="none" stroke="#b9acbb" cx="488.133" cy="-364.3245" rx="4" ry="4"/>
<polygon fill="#b9acbb" stroke="#b9acbb" points="665.8014,-146.3162 672.5656,-137.685 666.999,-141.4617 668.1966,-136.6072 668.1966,-136.6072 668.1966,-136.6072 666.999,-141.4617 663.8275,-135.5294 665.8014,-146.3162 665.8014,-146.3162"/>
</g>
<!-- Question -->
<g id="node10" class="node">
<title>Question</title>
<path fill="none" stroke="#000000" d="M679,-188.5C679,-188.5 790,-188.5 790,-188.5 796,-188.5 802,-194.5 802,-200.5 802,-200.5 802,-297.5 802,-297.5 802,-303.5 796,-309.5 790,-309.5 790,-309.5 679,-309.5 679,-309.5 673,-309.5 667,-303.5 667,-297.5 667,-297.5 667,-200.5 667,-200.5 667,-194.5 673,-188.5 679,-188.5"/>
<text text-anchor="middle" x="734.5" y="-294.3" font-family="Times,serif" font-size="14.00" fill="#000000">Question</text>
<polyline fill="none" stroke="#000000" points="667,-286.5 802,-286.5 "/>
<text text-anchor="start" x="675" y="-271.3" font-family="Times,serif" font-size="14.00" fill="#000000">id :int(11)</text>
<text text-anchor="start" x="675" y="-256.3" font-family="Times,serif" font-size="14.00" fill="#000000">title :varchar(255)</text>
<text text-anchor="start" x="675" y="-241.3" font-family="Times,serif" font-size="14.00" fill="#000000">body :text</text>
<text text-anchor="start" x="675" y="-226.3" font-family="Times,serif" font-size="14.00" fill="#000000">created_at :datetime</text>
<text text-anchor="start" x="675" y="-211.3" font-family="Times,serif" font-size="14.00" fill="#000000">updated_at :datetime</text>
<text text-anchor="start" x="675" y="-196.3" font-family="Times,serif" font-size="14.00" fill="#000000">user_id :int(11)</text>
</g>
<!-- User&#45;&gt;Question -->
<g id="edge6" class="edge">
<title>User&#45;&gt;Question</title>
<path fill="none" stroke="#8fcada" d="M491.5266,-362.0753C492.1823,-361.7117 492.8401,-361.3532 493.5,-361 556.1997,-327.4363 589.5208,-376.0363 652.5,-343 664.8457,-336.5239 676.1677,-327.3608 686.2,-317.2716"/>
<ellipse fill="none" stroke="#8fcada" cx="488.0309" cy="-364.1316" rx="4" ry="4"/>
<polygon fill="#8fcada" stroke="#8fcada" points="686.405,-317.0547 696.5441,-312.8773 689.8392,-313.4206 693.2734,-309.7865 693.2734,-309.7865 693.2734,-309.7865 689.8392,-313.4206 690.0028,-306.6958 686.405,-317.0547 686.405,-317.0547"/>
</g>
<!-- User&#45;&gt;ActsAsVotable::Vote -->
<g id="edge8" class="edge">
<title>User&#45;&gt;ActsAsVotable::Vote</title>
<path fill="none" stroke="#ee16ad" d="M287.1846,-353.5784C285.8853,-350.046 284.654,-346.5171 283.5,-343 255.0915,-256.4168 249.016,-147.5249 247.7757,-96.8546"/>
<ellipse fill="none" stroke="#ee16ad" cx="288.7089" cy="-357.5763" rx="4" ry="4"/>
<polygon fill="#ee16ad" stroke="#ee16ad" points="247.7721,-96.671 252.0729,-86.5837 247.673,-91.672 247.5738,-86.673 247.5738,-86.673 247.5738,-86.673 247.673,-91.672 243.0747,-86.7622 247.7721,-96.671 247.7721,-96.671"/>
<text text-anchor="middle" x="288" y="-245.3" font-family="Times,serif" font-size="14.00" fill="#000000">votes</text>
</g>
<!-- Question&#45;&gt;Answer -->
<g id="edge12" class="edge">
<title>Question&#45;&gt;Answer</title>
<path fill="none" stroke="#48d3bc" d="M715.1501,-180.5166C712.016,-169.4242 708.75,-157.8653 705.5574,-146.5659"/>
<ellipse fill="none" stroke="#48d3bc" cx="716.2882" cy="-184.5447" rx="4" ry="4"/>
<polygon fill="#48d3bc" stroke="#48d3bc" points="705.4949,-146.3445 707.1063,-135.4976 704.1354,-141.5328 702.7758,-136.7212 702.7758,-136.7212 702.7758,-136.7212 704.1354,-141.5328 698.4453,-137.9448 705.4949,-146.3445 705.4949,-146.3445"/>
</g>
</g>
</svg>
